<mxfile host="app.diagrams.net" modified="2023-10-27T03:40:37.593Z" agent="Mozilla/5.0 (Windows NT 10.0; Win64; x64) AppleWebKit/537.36 (KHTML, like Gecko) Chrome/118.0.0.0 Safari/537.36" version="22.0.8" etag="8VubSHRTtiFgX6aGMPA-" type="github">
  <diagram name="หน้า-1" id="IYYpVgitZUw0eZ5C7rkB">
    <mxGraphModel>
      <root>
        <mxCell id="0" />
        <mxCell id="1" parent="0" />
      </root>
    </mxGraphModel>
  </diagram>
</mxfile>
